<?xml version="1.0" encoding="UTF-8" standalone="no"?>
<!-- Created with Inkscape (http://www.inkscape.org/) -->

<svg
   width="44.997162mm"
   height="103.76896mm"
   viewBox="0 0 44.997162 103.76896"
   version="1.1"
   id="svg6937"
   sodipodi:docname="404.svg"
   inkscape:version="1.2.2 (732a01da63, 2022-12-09)"
   xmlns:inkscape="http://www.inkscape.org/namespaces/inkscape"
   xmlns:sodipodi="http://sodipodi.sourceforge.net/DTD/sodipodi-0.dtd"
   xmlns="http://www.w3.org/2000/svg"
   xmlns:svg="http://www.w3.org/2000/svg">
  <sodipodi:namedview
     id="namedview7131"
     pagecolor="#ffffff"
     bordercolor="#666666"
     borderopacity="1.0"
     inkscape:showpageshadow="2"
     inkscape:pageopacity="0.0"
     inkscape:pagecheckerboard="0"
     inkscape:deskcolor="#d1d1d1"
     inkscape:document-units="mm"
     showgrid="false"
     inkscape:zoom="4.0517642"
     inkscape:cx="85.3949"
     inkscape:cy="28.629504"
     inkscape:window-width="1366"
     inkscape:window-height="705"
     inkscape:window-x="-8"
     inkscape:window-y="-8"
     inkscape:window-maximized="1"
     inkscape:current-layer="layer5" />
  <defs
     id="defs6934" />
  <g
     inkscape:groupmode="layer"
     id="layer5"
     inkscape:label="fondo"
     transform="translate(1.1402802,1.0000696)">
    <path
       style="fill:#ffffff;fill-opacity:1;stroke-width:0.27658"
       d="m 15.364761,101.76006 c -2.194345,-1.04922 -2.427738,-1.10169 -4.900303,-1.10169 -1.63999,0 -2.9627727,-0.14571 -3.5914527,-0.39566 C 6.3255822,100.0451 5.5278245,99.933647 5.1001818,100.01502 3.9647927,100.23107 0.30744245,99.689177 -0.50114993,99.185107 -1.5027301,98.560696 -1.5247254,97.349936 0.88061476,96.147356 2.6316404,95.271881 3.0948643,95.397135 2.8452596,94.953423 2.7128895,93.588588 2.9487131,90.919565 4.6741184,87.765393 5.5834593,86.115266 5.7646762,86.100907 5.8601949,82.927518 5.9258889,80.747406 5.8063962,78.688061 5.5149536,76.974409 5.2698821,75.533485 4.9951251,73.079778 4.9043861,71.521777 4.6353839,66.903273 6.3340056,48.576686 7.248619,46.229617 7.320958,46.044142 7.2198196,45.827315 7.0505943,45.892388 6.674595,46.036974 3.4155933,44.230148 3.5343894,43.760306 3.5838296,43.564768 4.889554,40.245144 5.9370118,38.28711 L 7.0387452,36.693986 6.1237153,36.825881 C 5.2778928,36.956456 5.0453654,36.401053 4.4403277,35.602603 3.7631875,34.708998 3.1470151,33.381717 2.8637179,32.206568 2.7745549,31.836883 3.1185416,30.814593 3.7564359,29.553059 4.6680166,27.750229 4.8152438,27.171032 4.9679259,24.786361 5.1266844,22.306863 5.2114435,21.996314 5.9469891,21.199239 6.5007577,20.59916 6.75227,20.034206 6.75227,19.39045 c 0,-1.062705 0.9874566,-2.641749 1.8907844,-3.023546 0.3304734,-0.139667 0.8679739,-0.77703 1.1944179,-1.416362 C 10.163928,14.311234 10.506761,13.765064 10.74043,13.765064 10.550571,13.284216 10.403506,12.932801 10.268623,12.624554 9.4256555,10.698135 9.613239,11.798866 8.7865873,11.800045 7.4200407,11.339661 7.0292507,8.5852365 6.8542672,7.3784682 6.6770212,6.0633272 6.7255835,5.6326294 7.7084416,4.7505723 8.2706335,4.2460228 8.7306078,3.6942083 8.7306078,3.5242992 c 0,-0.770098 1.3938682,-1.8336648 3.8826812,-2.96262817 1.48616,-0.67410775 2.877039,-0.79686153 3.210545,-0.7515919 0.366429,0.049698 0.489867,0.0136805 0.734971,0.54348167 0.298741,0.64580829 0.588705,0.8767967 1.1007,0.8767967 1.901671,0 3.665011,2.1538974 3.341106,4.0811492 -0.138824,0.8261046 -0.08583,1.0447368 0.2531,1.0447368 0.604812,0 0.719955,0.9712214 0.04931,1.5486925 -0.311903,0.2685698 -0.472588,0.5423118 -0.472588,0.8976165 0,0.3553322 -0.348887,0.9831777 -0.599936,1.4450995 -0.573373,1.054927 -0.510359,2.724808 0.273423,3.470517 0.321408,0.3058 1.340702,0.68595 2.360655,0.880437 4.436278,0.845881 5.235418,1.433633 8.127236,3.847574 0.972548,0.811832 1.684673,1.281472 2.142719,1.281472 0.517761,0 1.178804,0.809413 2.622354,2.253264 1.021048,1.021261 2.280099,2.502829 4.227916,3.864362 2.386939,2.030284 2.445962,2.767284 2.170175,3.812669 -0.308321,1.16889 -6.042908,6.289821 -8.533659,8.37985 l -2.696469,2.069735 -0.241623,2.998124 0.01958,2.949147 -1.992129,-0.09795 c -1.48895,-0.07321 -2.618812,-0.104852 -2.546731,0.0064 0.07213,0.111286 0.357516,1.311734 0.674165,3.166476 0.709195,4.153996 0.961126,9.310449 0.872508,17.859303 -0.03739,3.605844 -0.03365,11.958506 0.0086,18.561461 0.08735,13.736399 0.152467,13.316533 -2.435541,15.702207 -1.105296,1.01891 -1.571842,1.2692 -2.368817,1.27081 -0.54582,0 -1.949386,0.0777 -3.119027,0.17013 -2.077266,0.16419 -2.180031,0.14253 -4.430695,-0.93359 z m 1.300783,-21.740116 c 0.347427,-1.780572 0.792858,-3.965803 0.989833,-4.856084 0.246239,-1.112861 0.289879,-2.377497 0.13962,-4.046753 -0.120168,-1.335431 -0.249295,-2.852962 -0.286889,-3.372303 -0.03762,-0.51933 0.437395,0.778488 0.321913,2.855819 -0.115497,2.077332 -0.273934,5.326155 -0.521385,7.106706 -0.24745,1.780571 -1.272855,3.728976 -1.375692,4.470866 -0.331759,2.392955 0.08295,1.171267 0.7326,-2.158251 z M 33.397788,29.504595 c -1.142589,0.417393 -1.620155,1.441548 -2.364296,0.763205 -0.873644,-0.796375 -1.55599,-1.539782 -1.545402,-0.852347 0.0043,0.259666 0.680373,0.769409 0.98428,2.030647 0.303906,1.261238 0.555814,2.635272 0.559813,3.053438 -0.08538,1.039523 -0.292555,-0.434582 0.396035,-0.901107 0.535363,-0.644338 3.599492,-4.371368 1.96957,-4.093836 z"
       id="path341-3-3-2"
       sodipodi:nodetypes="cscscccccsccsscccsccscscccscccscccscssscscsssccscccscsscsccccsccccscscccsccc" />
  </g>
  <g
     inkscape:groupmode="layer"
     id="layer6"
     inkscape:label="mono"
     transform="translate(1.1402802,1.0000696)">
    <g
       id="layer1"
       transform="translate(-77.712266,-46.73114)">
      <path
         style="fill:#f4dd51;fill-opacity:1;stroke-width:0.264583"
         d="m 92.982589,147.51058 c -2.04758,-1.02899 -2.26536,-1.08045 -4.57255,-1.08045 -1.5303,0 -2.76461,-0.1429 -3.35124,-0.38804 -0.51081,-0.21341 -1.25521,-0.32271 -1.65425,-0.24291 -1.05945,0.21188 -4.47218,-0.31956 -5.22669,-0.81391 -0.93459,-0.61238 -0.51348,-1.18846 1.73098,-2.36786 1.63391,-0.8586 1.83187,-1.04143 1.59896,-1.47659 -0.64558,-1.20631 -0.003,-4.03408 1.62105,-7.131 0.84852,-1.61832 0.89575,-1.85655 0.98488,-4.96877 0.0613,-2.13809 -0.0502,-4.15774 -0.32215,-5.83837 -0.22868,-1.41315 -0.48506,-3.81956 -0.56973,-5.34753 -0.25101,-4.52948 1.334,-22.502843 2.18744,-24.80469 0.0675,-0.181901 -0.0156,-0.330729 -0.18478,-0.330729 -0.29303,0 -3.45337,-2.0379 -3.45337,-2.226839 0,-0.197803 1.43687,-3.311551 2.41427,-5.231844 l 1.03566,-2.034726 -0.89572,0.145363 c -0.78925,0.128058 -0.97195,0.03966 -1.53652,-0.7434 -0.63185,-0.87638 -1.20681,-2.178077 -1.47116,-3.330575 -0.0832,-0.362559 0.23778,-1.365144 0.83301,-2.602362 0.85061,-1.768079 0.98799,-2.336112 1.13046,-4.674817 0.14814,-2.431706 0.22723,-2.736268 0.91358,-3.51798 0.51673,-0.588512 0.75142,-1.142576 0.75142,-1.773925 0,-1.04222 0.92141,-2.590827 1.76432,-2.965265 0.30837,-0.136975 0.80992,-0.762053 1.11453,-1.389062 0.30462,-0.626984 0.73224,-1.139984 0.95028,-1.139984 0.32594,0 0.30321,-0.152876 -0.12787,-0.859896 -0.28835,-0.472943 -0.52957,-1.098021 -0.53602,-1.389062 -0.0143,-0.647674 -1.57774,-2.566557 -1.57774,-1.936531 0,0.233601 0.18613,0.496147 0.41365,0.583433 0.47252,0.181345 0.26733,0.691639 -0.27808,0.691639 -0.64886,0 -1.24735,-0.836948 -1.11045,-1.552937 0.0755,-0.39497 -0.0199,-0.789834 -0.22979,-0.950436 -0.19744,-0.151104 -0.43636,-0.878364 -0.53094,-1.616128 -0.16539,-1.289791 -0.13531,-1.375966 0.78181,-2.241021 0.52459,-0.494824 0.9538,-1.036003 0.9538,-1.202637 0,-0.755253 1.30064,-1.79832 3.62299,-2.905522 1.38676,-0.661114 2.77601,-1.165754 3.08721,-1.121357 0.34192,0.04874 0.71562,0.420978 0.94433,0.940567 0.27876,0.63336 0.54933,0.859896 1.02708,0.859896 1.77448,0 3.41988,2.11238 3.11764,4.002484 -0.12954,0.810181 -0.0801,1.024599 0.23617,1.024599 0.56436,0 0.49662,0.624285 -0.12917,1.190625 -0.29104,0.263393 -0.52917,0.764011 -0.52917,1.112467 0,0.348483 -0.19166,1.004253 -0.42592,1.457272 -0.53502,1.034593 -0.34674,2.728323 0.38462,3.459658 0.29991,0.299905 1.25103,0.672729 2.202761,0.863467 4.13957,0.829575 5.61952,1.521487 8.31792,3.888899 0.9075,0.796184 1.67971,1.256771 2.10712,1.256771 0.48313,0 1.22422,0.544592 2.61038,1.918229 1.06465,1.055026 2.85366,2.738861 3.9756,3.741843 2.22729,1.991149 2.67843,2.681923 2.42109,3.707157 -0.2877,1.14636 -6.61098,7.249107 -9.21202,8.890767 l -2.30285,1.453462 -0.0122,2.844271 -0.0122,2.84427 h -2.52915 c -1.39104,0 -2.47412,0.0893 -2.40686,0.198438 0.0673,0.109141 0.36407,1.686719 0.65955,3.505725 0.66175,4.07395 0.89684,9.131013 0.81415,17.515083 -0.0349,3.53634 -0.0314,11.728 0.008,18.20368 0.0815,13.47163 0.14227,13.05986 -2.27264,15.39955 -1.03137,0.99927 -1.46671,1.24473 -2.21038,1.24631 -0.509321,0 -1.819011,0.0762 -2.910421,0.16685 -1.93833,0.16103 -2.03422,0.13978 -4.13435,-0.91559 z m 1.21378,-21.32107 c 0.32419,-1.74625 0.73983,-3.88936 0.92363,-4.76248 0.22977,-1.09141 0.27049,-2.33167 0.13028,-3.96875 -0.11213,-1.30969 -0.23262,-2.79797 -0.2677,-3.3073 -0.0351,-0.50932 -0.15198,0.74084 -0.25974,2.77813 -0.10777,2.03729 -0.38487,5.13292 -0.61577,6.87915 -0.2309,1.74625 -0.49834,3.77031 -0.5943,4.49791 -0.30957,2.34683 0.0774,1.14869 0.6836,-2.11666 z M 110.31582,79.398939 c 0.93321,-1.26357 1.8824,-2.873719 1.8824,-3.193229 0,-0.07485 -0.24746,-0.268552 -0.54993,-0.430424 -0.42437,-0.227119 -0.7955,-0.196057 -1.62552,0.136048 -1.06082,0.424445 -1.08527,0.421111 -1.77964,-0.244157 -0.81521,-0.781024 -1.60425,-0.885693 -1.59436,-0.211508 0.004,0.254661 0.23879,1.475052 0.52237,2.711979 0.28358,1.236927 0.51864,2.584476 0.52237,2.994581 l 0.007,0.745622 0.80422,-0.572664 c 0.44233,-0.31496 1.25741,-1.18626 1.81131,-1.936248 z"
         id="path341-3-3"
         sodipodi:nodetypes="cscscccccsccsscccsccscsccsccscsccccscccscssscscsssccscccsccccsccccscccsscscsssccsccccc" />
      <path
         style="display:inline;fill:#df8d8f;fill-opacity:1;stroke-width:0.264583"
         d="m 93.478279,147.62014 c -1.0914,-0.52996 -2.02194,-1.06773 -2.06788,-1.19502 -0.0459,-0.12732 -1.0777,-0.16129 -2.29285,-0.0755 -1.63443,0.11533 -2.54219,0.0483 -3.48837,-0.2577 -0.70347,-0.22749 -2.21176,-0.42127 -3.35174,-0.43064 -2.25502,-0.0185 -4.1221,-0.45122 -4.33443,-1.00449 -0.21262,-0.55412 0.41886,-1.11278 2.36638,-2.09354 1.76297,-0.88781 1.79988,-0.92702 1.4043,-1.49175 -0.22344,-0.31901 -0.40471,-0.88093 -0.40283,-1.24873 0.005,-1.02311 0.93642,-3.77108 1.90495,-5.62157 0.84944,-1.62293 0.87185,-1.75165 0.95911,-5.51138 0.0525,-2.26118 -0.0386,-4.49921 -0.22084,-5.42396 -0.55192,-2.8013 -0.6199,-9.88107 -0.15354,-15.99411 0.23871,-3.1287 0.54647,-6.16481 0.68392,-6.7469 0.13748,-0.582083 0.25278,-1.611143 0.25625,-2.286813 0.003,-0.67566 0.19553,-2.14341 0.4268,-3.26165 0.23124,-1.118261 0.38007,-2.060442 0.33073,-2.093727 -0.0494,-0.03331 -0.83966,-0.530092 -1.7562,-1.103974 -2.03735,-1.275688 -2.03938,-1.223565 0.22487,-5.722064 1.18406,-2.352463 1.48206,-3.144546 1.12842,-2.999317 -1.05394,0.432806 -1.30799,0.408305 -1.85015,-0.178329 -0.31025,-0.335703 -0.88019,-1.367605 -1.26651,-2.293091 l -0.70239,-1.682697 0.96057,-2.021469 c 0.83341,-1.75395 0.99163,-2.40665 1.19539,-4.931886 0.20809,-2.578868 0.30654,-2.972594 0.86437,-3.456279 0.42539,-0.368855 0.68564,-0.955252 0.80258,-1.808453 0.20331,-1.483307 0.97232,-2.681685 1.8646,-2.905628 0.39349,-0.09877 0.7007,-0.420608 0.80746,-0.845952 0.0948,-0.377614 0.46463,-0.978879 0.82192,-1.336173 0.58632,-0.586343 0.6136,-0.706569 0.2798,-1.23399 -0.20341,-0.321389 -0.4505,-0.971312 -0.54911,-1.444254 -0.0986,-0.472943 -0.28583,-0.859896 -0.41606,-0.859896 -0.13023,0 -0.4422,-0.386953 -0.69326,-0.859896 -0.37838,-0.712708 -0.47477,-0.773721 -0.56314,-0.356447 -0.061,0.287999 0.0884,0.612564 0.34914,0.758508 0.35917,0.201004 0.38198,0.300699 0.10761,0.470297 -0.67506,0.417195 -1.30278,-0.230743 -1.30278,-1.344692 0,-0.756073 -0.11084,-1.04902 -0.39688,-1.04902 -0.21828,0 -0.39687,-0.223256 -0.39687,-0.496094 0,-0.272865 -0.0739,-0.86569 -0.16426,-1.317413 -0.1384,-0.692018 -0.0238,-0.96311 0.72761,-1.722041 0.49051,-0.495406 1.10394,-1.301538 1.36318,-1.791441 0.25924,-0.489902 0.86117,-1.144534 1.3376,-1.454732 0.77301,-0.50329 3.58199,-1.771703 4.70006,-2.122355 0.57391,-0.179996 1.29622,0.593117 1.29622,1.387396 0,0.556498 0.0919,0.624522 0.65328,0.483632 0.73959,-0.185632 2.26984,0.630872 2.91878,1.557364 0.22836,0.326019 0.39669,1.146862 0.39669,1.934368 0,0.999437 0.112,1.411023 0.41566,1.527546 0.36317,0.139356 0.34645,0.256725 -0.13229,0.929031 -0.30136,0.423254 -0.54795,0.996315 -0.54795,1.27344 0,0.277151 -0.17481,0.735012 -0.38846,1.017508 -0.44937,0.594095 -0.53234,2.824506 -0.13288,3.570949 0.38685,0.722815 1.64809,1.307994 2.823291,1.309899 0.55293,0 1.34636,0.179467 1.76319,0.396875 0.41682,0.217382 1.00496,0.395234 1.30701,0.395234 0.80262,0 4.15174,2.042981 5.10889,3.116448 0.52835,0.592561 1.15663,0.982186 1.75205,1.086512 0.73546,0.128878 1.78723,0.982239 5.06322,4.108079 5.38361,5.136859 5.34488,4.566682 0.62921,9.260946 -2.16456,2.154714 -4.34081,4.035927 -5.68854,4.917307 l -2.18281,1.427507 v 2.725975 2.725976 h -2.53458 -2.53455 l 0.15309,0.727604 c 1.26521,6.013189 1.25772,5.847369 1.31312,29.013062 l 0.0525,21.93541 -0.57441,1.21563 c -0.31591,0.66857 -1.0351,1.64856 -1.59821,2.1777 -1.06908,1.00463 -0.96221,0.97613 -5.389431,1.43698 -1.29937,0.13528 -1.66773,0.0483 -3.43959,-0.81208 z m 5.28326,0.14361 c 0.29445,-0.18624 -0.0507,-0.44272 -1.42592,-1.05976 -2.63973,-1.18438 -3.94738,-1.46878 -4.91334,-1.06868 -0.43416,0.17984 -0.717,0.44405 -0.62855,0.58717 0.0884,0.14308 0.89059,0.60542 1.78258,1.0274 1.23407,0.58383 2.00128,0.76631 3.20926,0.7634 0.87313,-0.003 1.76231,-0.1144 1.97597,-0.24953 z m -15.25966,-2.98735 c -0.29898,-0.32742 -0.70099,-1.0422 -0.89332,-1.58838 -0.28858,-0.81946 -0.44442,-0.9639 -0.89156,-0.82637 -0.77187,0.23744 -2.00504,0.87704 -2.88653,1.49717 -0.7062,0.49684 -0.72403,0.55153 -0.26458,0.8123 0.63704,0.36161 2.23779,0.62577 4.04445,0.66746 l 1.43518,0.0331 z m 10.32041,-15.875 c 0.23268,-1.05503 0.61373,-2.98979 0.8468,-4.29948 0.23307,-1.30969 0.55698,-2.93796 0.7198,-3.61842 0.34687,-1.44952 -0.20129,-8.26206 -0.6428,-7.98917 -0.14828,0.0916 -0.1828,0.78028 -0.0827,1.64912 0.20106,1.74495 -0.20433,6.90414 -0.93437,11.8912 -0.28345,1.93614 -0.51533,3.69231 -0.51533,3.9026 0,0.81621 0.20264,0.3048 0.60859,-1.53585 z m -8.01692,-37.107858 c 0,-0.218281 -0.1042,-0.396875 -0.23151,-0.396875 -0.12735,0 -0.63336,-0.06935 -1.12448,-0.154119 l -0.89297,-0.154094 0.66146,0.545095 c 0.77816,0.641297 1.5875,0.722842 1.5875,0.159993 z M 107.5012,89.246293 v -2.414932 l -1.18473,1.092015 c -0.65159,0.600631 -1.29727,1.092041 -1.43488,1.092041 -0.56989,0 -1.87831,1.398694 -1.87831,2.007897 0,0.624152 0.0486,0.637937 2.24896,0.637937 h 2.24896 z m -19.623271,1.621366 c 0.68532,1.59e-4 0.70286,-0.03897 0.61116,-1.363265 -0.0519,-0.749909 0.10549,-2.744258 0.3498,-4.43193 0.47773,-3.299962 0.60749,-3.881305 0.81902,-3.66977 0.0748,0.07474 -0.0374,1.371705 -0.24929,2.882132 -0.56549,4.031509 -0.67474,5.655786 -0.4087,6.076104 0.13031,0.205845 0.23876,0.266541 0.24098,0.134831 0.003,-0.131683 0.24217,-0.02408 0.53322,0.239448 0.5235,0.473763 0.52916,0.462121 0.52916,-1.084844 0,-1.416474 0.79246,-9.769555 1.22119,-12.871927 l 0.17364,-1.25677 -1.16043,0.004 c -1.51482,0.0053 -1.729,0.183727 -1.74191,1.451161 -0.0185,1.80975 -0.40659,4.372715 -0.68864,4.547023 -0.26569,0.164227 -0.11541,-2.382441 0.20717,-3.510571 0.0798,-0.279003 -0.12091,0.08803 -0.446,0.815631 -0.32507,0.727604 -1.69178,3.573753 -3.0371,6.324785 -1.34533,2.751005 -2.39414,5.085874 -2.33067,5.188558 0.0634,0.102685 0.65435,0.260589 1.31305,0.350864 0.65871,0.09028 1.47699,0.234262 1.81838,0.319935 0.60941,0.152955 0.62389,0.11086 0.79452,-2.309998 0.24386,-3.460221 0.74056,-6.831436 1.00647,-6.831436 0.27763,0 0.29546,-0.292444 -0.17081,2.80117 -0.36426,2.416678 -0.53089,7.287869 -0.22321,6.525393 0.0734,-0.181902 0.45096,-0.33065 0.839,-0.330571 z m 1.90423,-10.531263 c -0.019,-0.810524 0.85082,-4.020978 1.08931,-4.020978 0.14367,0 0.19805,0.208359 0.12081,0.46302 -0.0772,0.254662 -0.26865,1.047697 -0.42537,1.762311 -0.2953,1.346544 -0.76988,2.432473 -0.78475,1.795647 z m 11.349591,10.888266 1.64568,-0.172006 -0.1852,-1.346623 c -0.10187,-0.740622 -0.46392,-1.756754 -0.80455,-2.258034 l -0.61934,-0.911436 0.55124,-0.891858 c 0.32382,-0.523981 0.7466,-2.039805 1.02489,-3.674612 0.26053,-1.530509 0.5444,-2.853452 0.63082,-2.939892 0.2323,-0.232277 0.191,0.789649 -0.0902,2.233137 -0.13607,0.698367 -0.32006,1.716272 -0.40888,2.261975 l -0.16145,0.992188 h 1.21801 c 1.07238,0 1.3622,-0.136234 2.424,-1.139455 l 1.20597,-1.139454 -0.49376,-2.498567 c -0.48895,-2.474118 -0.50287,-2.501476 -1.41983,-2.795666 -0.50933,-0.163407 -3.08706,-0.565653 -5.728291,-0.893895 -4.98014,-0.618913 -6.88559,-0.577136 -7.63002,0.167296 -0.51674,0.516731 -0.50991,0.891408 0.0161,0.891408 0.25632,0 0.37973,0.177932 0.32115,0.46302 -0.0523,0.254662 -0.27591,0.433388 -0.49686,0.39714 -0.29909,-0.04903 -0.41728,0.22135 -0.46258,1.058333 -0.0335,0.618332 -0.1243,1.332574 -0.20185,1.587236 -0.0926,0.303979 0.003,0.463021 0.27374,0.463021 0.53031,0 0.53618,0.434895 0.01,0.729429 -0.30535,0.170895 -0.49903,1.197822 -0.7883,4.180338 -0.53181,5.482378 -0.56547,5.144399 0.51261,5.144399 h 0.90701 l 0.16039,-1.521354 c 0.48753,-4.623647 1.11237,-8.18007 1.38867,-7.903766 0.0661,0.06607 -0.0608,1.291035 -0.28189,2.722113 -0.22111,1.431078 -0.48138,3.391165 -0.57835,4.355756 l -0.17634,1.753791 0.88728,0.124116 c 0.48799,0.06826 1.09563,0.214524 1.3503,0.32504 0.42897,0.186135 0.46302,-0.08223 0.46302,-3.648233 0,-2.117037 0.10784,-3.915807 0.23968,-3.997272 0.1414,-0.08739 0.17997,1.360011 0.094,3.530361 -0.0801,2.02319 -0.0726,3.868764 0.0167,4.10128 0.18029,0.469768 2.17036,0.565997 5.186471,0.250746 z M 98.118169,80.945626 c 0.10528,-1.891771 0.29475,-3.677708 0.42109,-3.96875 0.13465,-0.31025 0.16354,1.003247 0.0699,3.175 -0.0879,2.037292 -0.27736,3.823229 -0.42106,3.96875 -0.172,0.174175 -0.19587,-0.910537 -0.0699,-3.175 z m -1.72947,0.999384 c 0,-0.931333 1.24685,-5.396151 1.59721,-5.719445 0.26178,-0.241538 0.29226,-0.194151 0.14287,0.222144 -0.10443,0.291042 -0.47556,1.706272 -0.8247,3.14497 -0.64143,2.642976 -0.91538,3.346953 -0.91538,2.352331 z m 10.253081,5.164958 c 0.61873,-0.559224 1.39959,-1.141889 1.73524,-1.294818 0.33565,-0.152929 0.75393,-0.596768 0.92951,-0.986288 1.0061,-2.232051 1.95061,-3.751765 2.63427,-4.238598 l 0.77555,-0.552212 0.31205,0.684901 c 0.28292,0.62095 0.35443,0.6477 0.76586,0.286649 0.24961,-0.219048 0.7217,-0.479901 1.04913,-0.579675 0.86577,-0.263843 0.74842,-0.767028 -0.1323,-0.567267 l -0.7276,0.164994 0.62463,-0.533188 c 0.34353,-0.293264 0.95758,-0.533215 1.36453,-0.533215 0.55502,0 1.0436,-0.337741 1.95506,-1.351545 0.66834,-0.74332 1.21516,-1.602025 1.21516,-1.908201 0,-0.306176 -0.50105,-1.067197 -1.11342,-1.69119 -0.84344,-0.859393 -1.31504,-1.134481 -1.9449,-1.134481 -1.34541,0 -2.49793,0.510196 -2.49793,1.1058 0,0.512048 0.023,0.510566 0.94816,-0.06114 0.84235,-0.520594 1.06275,-0.551657 1.97479,-0.278395 1.11908,0.33528 1.83955,1.137841 1.83955,2.049145 0,0.635688 -1.42026,1.682512 -2.2827,1.682512 -0.27524,0 -0.64246,0.227409 -0.81605,0.505381 -0.17357,0.277944 -0.67831,0.58502 -1.12165,0.682386 -0.44331,0.09739 -0.98478,0.43225 -1.20325,0.744141 -0.21844,0.311891 -0.39719,0.426164 -0.39719,0.253947 0,-0.172244 0.24403,-0.540491 0.54227,-0.818356 l 0.54226,-0.505196 -0.54226,-0.14179 c -0.55105,-0.144118 -0.77478,-0.985096 -0.26207,-0.985096 0.15412,0 0.20203,-0.126498 0.10649,-0.281094 -0.0956,-0.154569 -0.60859,0.455666 -1.14012,1.356096 -0.53149,0.90043 -1.40795,2.079572 -1.94765,2.620301 -0.66897,0.670242 -0.89513,1.069313 -0.71059,1.25386 0.18452,0.18452 0.15007,0.391292 -0.10829,0.649658 -0.20844,0.208439 -0.46408,0.647144 -0.56812,0.974884 -0.113,0.356023 -0.36665,0.566711 -0.63021,0.523425 -0.58721,-0.09647 -1.10254,0.249079 -1.10254,0.739299 0,0.223811 0.12827,0.317605 0.29416,0.215079 0.31025,-0.191743 0.81164,0.388859 0.61315,0.710036 -0.22686,0.367057 -1.57358,-0.209073 -1.86942,-0.799756 -0.18401,-0.3674 -0.3697,-0.488553 -0.47863,-0.312287 -0.0979,0.158406 -0.76321,0.287998 -1.47849,0.287998 -1.17284,0 -1.34019,0.0767 -1.7046,0.781394 -0.38121,0.737183 -0.36661,0.836613 0.25781,1.756728 0.36401,0.536416 0.66185,1.252326 0.66185,1.590887 0,0.613992 0.003,0.61341 1.25677,-0.216694 0.69123,-0.457756 1.763,-1.289817 2.38173,-1.849014 z m 1.38859,-2.063301 c 0,-0.14552 0.17859,-0.264583 0.39687,-0.264583 0.21828,0 0.39688,0.119063 0.39688,0.264583 0,0.145521 -0.1786,0.264584 -0.39688,0.264584 -0.21828,0 -0.39687,-0.119063 -0.39687,-0.264584 z m 5.16204,-4.493603 c -0.19515,-0.315754 0.0525,-0.798063 0.40982,-0.798063 0.32194,0 0.32403,0.716121 0.003,0.914744 -0.13547,0.08371 -0.32107,0.03122 -0.41248,-0.116681 z m -6.07189,3.15378 c 0.45571,-0.475668 0.59208,-0.739828 0.32996,-0.639233 -0.37933,0.145547 -1.45481,1.44989 -1.1955,1.44989 0.0489,0 0.43837,-0.364808 0.86554,-0.810657 z m 5.70447,-1.030579 1.1585,-1.047485 -0.75374,-0.01085 c -0.51102,-0.0074 -1.00095,0.253788 -1.52136,0.810895 -1.50783,1.614144 -0.61402,1.812211 1.1166,0.247438 z m -27.220391,-0.60616 c 1.04545,-1.148424 1.91979,-3.32404 3.00392,-7.474479 0.49414,-1.891771 1.20835,-4.034896 1.58716,-4.7625 0.3788,-0.727604 0.74009,-1.597342 0.80285,-1.932728 0.12115,-0.647436 -0.75285,-2.022528 -1.0785,-1.696853 -0.10392,0.103902 -0.10681,-0.138271 -0.006,-0.538162 0.20074,-0.799862 -0.13941,-0.967846 -0.66865,-0.330174 -0.50305,0.606161 -0.82304,0.473419 -0.63781,-0.264583 0.10229,-0.407564 0.0534,-0.661458 -0.12723,-0.661458 -0.90319,0 0.28823,-1.585701 1.55895,-2.074889 l 0.6613,-0.254582 -0.66146,-0.25572 c -0.86334,-0.333745 -1.25701,-0.161819 -1.73181,0.756338 -0.46635,0.901806 -0.49572,1.359879 -0.25312,3.945519 0.21656,2.308067 -0.0708,3.164443 -2.25772,6.728381 -1.61816,2.637049 -2.05242,3.204316 -2.27938,2.977356 -0.0976,-0.09763 0.0201,-0.395949 0.26185,-0.662966 0.54431,-0.601478 0.5564,-0.840687 0.0425,-0.840687 -0.21828,0 -0.39687,0.118745 -0.39687,0.263869 0,0.14515 -0.35719,1.019862 -0.79375,1.943867 -0.94555,2.001229 -0.95295,2.121826 -0.23199,3.777906 1.06632,2.44938 1.89296,2.799133 3.20622,1.356545 z m 24.966661,-2.695257 c 0.4516,-0.591291 1.07736,-1.577658 1.39058,-2.191967 l 0.56946,-1.116886 -0.77356,-0.400024 c -0.68419,-0.353827 -0.86011,-0.354885 -1.52287,-0.0093 -0.9866,0.514588 -1.23658,0.495882 -1.80763,-0.135096 -0.60558,-0.669158 -1.71836,-0.711862 -1.72342,-0.06615 -0.003,0.254661 0.26591,1.847797 0.59532,3.540336 l 0.59893,3.07729 0.92605,-0.811636 c 0.50932,-0.446405 1.29553,-1.2954 1.74714,-1.886664 z m 4.43701,-1.699419 c 0.42236,-0.466725 0.3991,-0.527341 -0.45116,-1.175861 -0.5936,-0.452782 -0.94607,-0.979276 -1.04326,-1.558449 -0.0807,-0.481066 -0.21984,-1.058651 -0.30913,-1.283547 -0.19969,-0.502946 2.05377,-1.649862 2.45443,-1.249204 0.1556,0.155602 0.30686,0.155337 0.40328,0 0.18013,-0.291438 -1.74652,-1.913096 -2.27293,-1.913096 -0.19651,0 -0.86588,0.518213 -1.48749,1.151573 l -1.13019,1.151599 0.81052,0.335703 c 0.64418,0.266832 0.81053,0.495247 0.81053,1.112996 0,0.450824 0.11112,0.708581 0.26458,0.613754 0.33766,-0.208677 0.3411,0.288687 0.006,0.914241 -0.20447,0.382059 -0.14901,0.511123 0.26633,0.619734 0.32554,0.08514 0.58669,0.447596 0.68821,0.955252 0.18925,0.946308 0.37361,1.00703 0.98996,0.325993 z m -1.15707,-0.0371 c 0,-0.145521 -0.1261,-0.264583 -0.2802,-0.264583 -0.15411,0 -0.20661,0.119062 -0.11668,0.264583 0.0899,0.145521 0.21604,0.264584 0.2802,0.264584 0.0642,0 0.11668,-0.119063 0.11668,-0.264584 z M 88.631939,76.79497 c -0.0845,-0.211058 -0.14717,-0.148378 -0.15987,0.159861 -0.0114,0.278897 0.0511,0.435187 0.13899,0.347266 0.0879,-0.08792 0.0973,-0.316124 0.0209,-0.507127 z m 17.546341,-1.255474 c 0,-0.313267 -0.53983,-0.481225 -3.53078,-1.098471 -2.665181,-0.550016 -9.169221,-0.721889 -9.169221,-0.242279 0,0.16211 1.26677,0.264583 3.27118,0.264583 1.79914,0 3.912501,0.133218 4.696351,0.296016 2.0284,0.421296 4.58849,0.970465 4.66633,1.000972 0.0364,0.01429 0.0661,-0.08512 0.0661,-0.220821 z m 3.10499,-0.745438 c 0.17807,-0.400182 1.21701,-1.69709 2.30876,-2.882 1.61988,-1.758156 1.91772,-2.210223 1.61927,-2.457926 -0.71993,-0.597482 -5.18093,3.828574 -5.18093,5.140378 0,0.303874 0.52575,0.927153 0.78208,0.927153 0.0809,0 0.29276,-0.327422 0.47082,-0.727605 z m 0.89758,0.337344 c 0.0101,-0.446537 -0.49028,-0.445452 -0.66175,0 -0.11311,0.294772 -0.0368,0.400817 0.24595,0.341921 0.22545,-0.04696 0.41257,-0.201454 0.4158,-0.34335 z M 92.684529,74.198746 c 0,-0.145521 -0.11906,-0.264583 -0.26458,-0.264583 -0.14552,0 -0.26458,0.119062 -0.26458,0.264583 0,0.145521 0.11906,0.264583 0.26458,0.264583 0.14552,0 0.26458,-0.119062 0.26458,-0.264583 z m 15.349781,-0.595313 0.52535,-0.859895 -0.79883,-0.08329 c -1.03507,-0.107897 -0.75022,-0.577771 0.35129,-0.579491 l 0.84429,-0.0026 -0.79375,-0.650611 c -0.89953,-0.737367 -0.71636,-0.891196 0.28215,-0.236961 0.93882,0.61513 1.04873,0.303742 0.23437,-0.664077 -0.38272,-0.454819 -0.5768,-0.826956 -0.43127,-0.826956 0.14552,0 0.56165,0.35306 0.92477,0.784596 0.55628,0.661088 0.70961,0.725011 0.97422,0.406188 0.2486,-0.299535 0.19431,-0.546523 -0.26056,-1.185307 -0.31602,-0.443812 -0.52898,-0.943768 -0.47324,-1.111012 0.0558,-0.167216 0.36158,0.136975 0.67961,0.676037 0.62188,1.053994 0.9992,1.048967 1.97234,-0.02646 0.43704,-0.482918 0.41966,-0.539538 -0.39984,-1.302914 -0.4712,-0.438917 -1.14427,-0.812165 -1.49574,-0.829416 -0.37002,-0.01826 -1.14967,-0.528505 -1.85208,-1.212347 -2.11035,-2.054569 -4.57952,-2.278671 -6.28748,-0.570707 -1.00987,1.009862 -1.1389,2.099654 -0.50001,4.222539 0.5707,1.896268 1.57967,3.222201 3.12737,4.109773 1.85478,1.06373 2.70039,1.049073 3.37704,-0.0585 z m -2.37419,-5.382947 c -0.006,-0.159359 0.22408,-0.502471 0.51142,-0.762503 0.28731,-0.260033 0.59298,-0.695193 0.67929,-0.967052 0.15541,-0.489717 0.65037,-0.698077 0.65037,-0.273765 0,0.341392 -1.82862,2.331165 -1.84108,2.00332 z m -20.540551,5.316802 0.43341,-0.661459 h -0.93215 c -0.81788,0 -0.93213,0.08107 -0.93213,0.661459 0,0.471619 0.14314,0.661458 0.49874,0.661458 0.27429,0 0.69376,-0.297656 0.93213,-0.661458 z m 6.1759,0.471937 c -0.40018,-0.06062 -1.05503,-0.06062 -1.45521,0 -0.40018,0.06064 -0.0728,0.110225 0.72761,0.110225 0.80036,0 1.12778,-0.04958 0.7276,-0.110225 z m 11.358721,-1.331833 c -0.40008,-0.400553 -1.12167,-0.474795 -5.348371,-0.550175 -2.68724,-0.04794 -4.88584,0.01164 -4.88584,0.132292 2e-5,0.120703 1.81572,0.249767 4.03489,0.286808 2.21919,0.03704 4.451591,0.173673 4.960911,0.303636 1.53633,0.392007 1.76983,0.359463 1.23841,-0.172561 z M 86.069949,71.975193 c 0,-0.18714 -0.23813,-0.555758 -0.52917,-0.81915 -0.29104,-0.263393 -0.52916,-0.600261 -0.52916,-0.748586 0,-0.148325 0.27556,-0.01085 0.61235,0.305594 0.33681,0.316415 0.68527,0.575283 0.77435,0.575283 0.0891,0 0.46461,-0.660982 0.83447,-1.468834 0.64368,-1.406022 0.65974,-1.558819 0.37505,-3.571875 -0.29411,-2.079704 -0.59989,-2.51759 -1.22888,-1.759691 -0.20511,0.247121 -0.17746,0.857118 0.0987,2.176754 0.21098,1.00838 0.31374,2.053484 0.22839,2.322433 -0.2154,0.678656 -0.45982,0.345228 -0.49737,-0.678498 -0.0988,-2.692267 -0.1575,-3.125311 -0.40327,-2.973414 -0.14553,0.08993 -0.26459,0.70403 -0.26459,1.364668 0,0.993458 -0.13726,1.329373 -0.79375,1.942624 -0.69913,0.653098 -0.79375,0.918051 -0.79375,2.222817 0,1.330034 0.0569,1.48135 0.55748,1.48135 0.34171,0 0.50514,-0.128006 0.42225,-0.33073 -0.50562,-1.236741 -0.49588,-1.3843 0.0481,-0.727604 0.30133,0.363802 0.55054,0.817325 0.5538,1.007798 0.003,0.1905 0.12493,0.272759 0.27046,0.182827 0.14552,-0.08993 0.26458,-0.316627 0.26458,-0.503766 z m 5.82083,0.371475 c 0,-0.145521 -0.46921,-0.264584 -1.04272,-0.264584 -0.57348,0 -1.1163,0.119063 -1.20624,0.264584 -0.0999,0.161607 0.30594,0.264583 1.04273,0.264583 0.66341,0 1.20623,-0.119063 1.20623,-0.264583 z m 9.205971,-2.778125 c -0.80188,-2.023745 -0.55065,-3.446701 0.82402,-4.667118 0.6114,-0.542793 1.51709,-1.048623 2.07578,-1.159298 l 0.99111,-0.196348 -0.79375,-0.350123 c -1.09802,-0.484346 -1.70601,-0.455956 -1.90802,0.08903 -0.40942,1.104661 -1.48513,2.398209 -2.441181,2.935552 -1.01245,0.569013 -3.20712,1.103074 -5.04351,1.227269 -0.50932,0.03445 -1.06074,0.0793 -1.22537,0.09964 -0.16462,0.02037 -0.43251,0.565997 -0.59531,1.212507 -0.57348,2.27748 -0.85862,2.1318 4.1729,2.1318 h 4.467491 z m -7.973541,0.747368 c -0.0958,-0.09575 -0.17409,-0.332846 -0.17409,-0.526891 0,-0.39415 0.68206,-0.48297 0.90752,-0.118163 0.18005,0.291333 -0.49417,0.884317 -0.73343,0.645054 z m -0.59753,-1.45079 c 0.23524,-1.041717 0.38541,-1.936353 0.33369,-1.988079 -0.2181,-0.218069 -1.49775,1.050184 -1.49775,1.484392 0,0.260853 -0.23813,0.777002 -0.52917,1.147022 -0.74882,0.951971 -0.6609,1.250712 0.36817,1.250712 0.89664,0 0.89765,0 1.32506,-1.894047 z m 0.15054,-2.670016 c 0.005,-0.10914 -0.0716,-0.198437 -0.1693,-0.198437 -0.2735,0 -1.1453,0.846217 -1.1453,1.1117 0,0.280167 1.30251,-0.624682 1.3146,-0.913263 z m 6.01163,0.01852 c 1.467091,-0.542449 2.869061,-1.881955 3.152751,-3.012334 0.2055,-0.81878 0.2159,-0.809043 -1.08628,-1.019307 -0.966621,-0.156078 -1.103521,-0.102659 -1.579721,0.616479 -0.28678,0.433043 -1.16274,1.180968 -1.94656,1.662033 -2.24457,1.377553 -3.05496,2.103543 -2.6438,2.368471 0.46744,0.301148 2.41443,0.0093 4.10361,-0.615342 z m -2.9962,-1.18573 c 1.96313,-1.282541 3.34288,-2.425859 3.34288,-2.770002 0,-0.110067 -0.35525,-0.409972 -0.78946,-0.666459 -0.97684,-0.57703 -1.65497,-1.946513 -1.55258,-3.13526 0.0426,-0.493818 -0.008,-0.983615 -0.11321,-1.088416 -0.33097,-0.330994 -0.20741,-0.574093 0.27244,-0.53602 0.51414,0.0408 0.75367,-1.016053 0.47863,-2.111877 -0.22376,-0.89162 -0.52745,-0.783088 -1.04973,0.375179 -0.66935,1.484312 -2.00859,2.121244 -2.00859,0.955251 0,-0.214524 -0.40261,-0.792691 -0.89469,-1.284763 l -0.89471,-0.894689 -0.95628,0.680403 c -0.52594,0.374226 -1.40325,0.752448 -1.94956,0.840502 -0.83833,0.135122 -1.0064,0.273341 -1.07717,0.886063 -0.0546,0.472678 0.0608,0.781499 0.33073,0.885084 0.51017,0.195765 0.54692,0.63164 0.0533,0.63164 -0.27369,0 -0.31716,0.24167 -0.17923,0.996024 0.23101,1.2632 0.89231,2.277771 1.7349,2.661681 0.36176,0.164836 0.65775,0.480854 0.65775,0.702257 0,0.221377 0.11105,0.402538 0.24675,0.402538 0.13571,0 0.32443,0.244713 0.41934,0.543798 0.13938,0.439076 0.35671,0.52824 1.12874,0.46302 0.79743,-0.06736 1.15157,-0.322315 2.13349,-1.535985 1.32475,-1.637374 2.04089,-2.134367 1.10146,-0.764381 -1.31217,1.913546 -2.44403,2.881047 -3.37047,2.881047 h -0.87916 l 0.40368,0.780601 c 0.33684,0.651404 1.02801,1.294871 1.42642,1.328023 0.0532,0.0045 0.94615,-0.54692 1.98437,-1.225233 z m -4.21489,-0.591079 c 0.0805,-0.130255 -0.0277,-0.303663 -0.24048,-0.385313 -0.41346,-0.158644 -0.76657,0.171265 -0.48485,0.452993 0.23921,0.239183 0.55383,0.209841 0.72533,-0.06768 z m -0.11514,-1.120828 c 0,-0.310833 -0.87361,-0.706252 -1.25678,-0.568854 -0.65124,0.233494 -0.32683,0.780044 0.46303,0.780044 0.43656,0 0.79375,-0.09504 0.79375,-0.21119 z"
         id="path337-8-5" />
    </g>
  </g>
</svg>
