<?xml version="1.0" encoding="UTF-8" standalone="no"?>
<!-- Created with Inkscape (http://www.inkscape.org/) -->

<svg
   width="27.008657mm"
   height="71.160866mm"
   viewBox="0 0 27.008657 71.160866"
   version="1.1"
   id="svg5"
   xmlns="http://www.w3.org/2000/svg"
   xmlns:svg="http://www.w3.org/2000/svg">
  <defs
     id="defs2">
    <rect
       x="105.93652"
       y="268.9158"
       width="383.00128"
       height="203.72408"
       id="rect236" />
  </defs>
  <g
     id="layer1"
     transform="translate(-91.495671,-25.359131)">
    <g
       aria-label="404"
       transform="matrix(0.26458333,0,0,0.26458333,63.254708,-15.633293)"
       id="text234"
       style="font-size:40px;line-height:1.25;white-space:pre;shape-inside:url(#rect236);fill:#ef9ca6">
      <path
         d="m 139.1775,299.68923 h -4.16 v 5.72 h -12.64 v -5.72 h -15.64 v -7.28 l 17.28,-19 h 11 v 18.04 h 4.16 z m -16.8,-8.24 v -5.6 l -5.04,5.6 z"
         style="font-family:'Champion Gothic';-inkscape-font-specification:'Champion Gothic'"
         id="path898" />
      <path
         d="m 169.49749,277.52923 q 4.88,4.92 4.88,11.88 0,6.96 -4.88,11.88 -4.84,4.92 -11.72,4.92 -6.88,0 -11.76,-4.92 -4.84,-4.92 -4.84,-11.88 0,-6.96 4.84,-11.88 4.88,-4.92 11.76,-4.92 6.88,0 11.72,4.92 z m -7.88,11.88 q 0,-7.4 -3.84,-7.4 -3.84,0 -3.84,7.4 0,7.44 3.84,7.44 3.84,0 3.84,-7.44 z"
         style="font-family:'Champion Gothic';-inkscape-font-specification:'Champion Gothic'"
         id="path900" />
      <path
         d="m 208.81747,299.68923 h -4.16 v 5.72 h -12.64 v -5.72 h -15.64 v -7.28 l 17.28,-19 h 11 v 18.04 h 4.16 z m -16.8,-8.24 v -5.6 l -5.04,5.6 z"
         style="font-family:'Champion Gothic';-inkscape-font-specification:'Champion Gothic'"
         id="path902" />
    </g>
    <g
       aria-label="404"
       transform="matrix(0.26458333,0,0,0.26458333,63.254708,-46.768727)"
       id="text234-4"
       style="font-size:40px;line-height:1.25;white-space:pre;shape-inside:url(#rect236);fill:#ef9ca6">
      <path
         d="m 139.1775,299.68923 h -4.16 v 5.72 h -12.64 v -5.72 h -15.64 v -7.28 l 17.28,-19 h 11 v 18.04 h 4.16 z m -16.8,-8.24 v -5.6 l -5.04,5.6 z"
         style="font-family:'Champion Gothic';-inkscape-font-specification:'Champion Gothic'"
         id="path898-5" />
      <path
         d="m 169.49749,277.52923 q 4.88,4.92 4.88,11.88 0,6.96 -4.88,11.88 -4.84,4.92 -11.72,4.92 -6.88,0 -11.76,-4.92 -4.84,-4.92 -4.84,-11.88 0,-6.96 4.84,-11.88 4.88,-4.92 11.76,-4.92 6.88,0 11.72,4.92 z m -7.88,11.88 q 0,-7.4 -3.84,-7.4 -3.84,0 -3.84,7.4 0,7.44 3.84,7.44 3.84,0 3.84,-7.44 z"
         style="font-family:'Champion Gothic';-inkscape-font-specification:'Champion Gothic'"
         id="path900-6" />
      <path
         d="m 208.81747,299.68923 h -4.16 v 5.72 h -12.64 v -5.72 h -15.64 v -7.28 l 17.28,-19 h 11 v 18.04 h 4.16 z m -16.8,-8.24 v -5.6 l -5.04,5.6 z"
         style="font-family:'Champion Gothic';-inkscape-font-specification:'Champion Gothic'"
         id="path902-7" />
    </g>
    <g
       aria-label="404"
       transform="matrix(0.26458333,0,0,0.26458333,63.254708,-31.20101)"
       id="text234-93"
       style="font-size:40px;line-height:1.25;white-space:pre;shape-inside:url(#rect236);fill:#ef9ca6">
      <path
         d="m 139.1775,299.68923 h -4.16 v 5.72 h -12.64 v -5.72 h -15.64 v -7.28 l 17.28,-19 h 11 v 18.04 h 4.16 z m -16.8,-8.24 v -5.6 l -5.04,5.6 z"
         style="font-family:'Champion Gothic';-inkscape-font-specification:'Champion Gothic'"
         id="path898-3" />
      <path
         d="m 169.49749,277.52923 q 4.88,4.92 4.88,11.88 0,6.96 -4.88,11.88 -4.84,4.92 -11.72,4.92 -6.88,0 -11.76,-4.92 -4.84,-4.92 -4.84,-11.88 0,-6.96 4.84,-11.88 4.88,-4.92 11.76,-4.92 6.88,0 11.72,4.92 z m -7.88,11.88 q 0,-7.4 -3.84,-7.4 -3.84,0 -3.84,7.4 0,7.44 3.84,7.44 3.84,0 3.84,-7.44 z"
         style="font-family:'Champion Gothic';-inkscape-font-specification:'Champion Gothic'"
         id="path900-3" />
      <path
         d="m 208.81747,299.68923 h -4.16 v 5.72 h -12.64 v -5.72 h -15.64 v -7.28 l 17.28,-19 h 11 v 18.04 h 4.16 z m -16.8,-8.24 v -5.6 l -5.04,5.6 z"
         style="font-family:'Champion Gothic';-inkscape-font-specification:'Champion Gothic'"
         id="path902-3" />
    </g>
    <g
       aria-label="404"
       transform="matrix(0.26458333,0,0,0.26458333,63.254708,-0.06557525)"
       id="text234-0"
       style="font-size:40px;line-height:1.25;white-space:pre;shape-inside:url(#rect236);fill:#ef9ca6">
      <path
         d="m 139.1775,299.68923 h -4.16 v 5.72 h -12.64 v -5.72 h -15.64 v -7.28 l 17.28,-19 h 11 v 18.04 h 4.16 z m -16.8,-8.24 v -5.6 l -5.04,5.6 z"
         style="font-family:'Champion Gothic';-inkscape-font-specification:'Champion Gothic'"
         id="path898-34" />
      <path
         d="m 169.49749,277.52923 q 4.88,4.92 4.88,11.88 0,6.96 -4.88,11.88 -4.84,4.92 -11.72,4.92 -6.88,0 -11.76,-4.92 -4.84,-4.92 -4.84,-11.88 0,-6.96 4.84,-11.88 4.88,-4.92 11.76,-4.92 6.88,0 11.72,4.92 z m -7.88,11.88 q 0,-7.4 -3.84,-7.4 -3.84,0 -3.84,7.4 0,7.44 3.84,7.44 3.84,0 3.84,-7.44 z"
         style="font-family:'Champion Gothic';-inkscape-font-specification:'Champion Gothic'"
         id="path900-46" />
      <path
         d="m 208.81747,299.68923 h -4.16 v 5.72 h -12.64 v -5.72 h -15.64 v -7.28 l 17.28,-19 h 11 v 18.04 h 4.16 z m -16.8,-8.24 v -5.6 l -5.04,5.6 z"
         style="font-family:'Champion Gothic';-inkscape-font-specification:'Champion Gothic'"
         id="path902-4" />
    </g>
    <g
       aria-label="404"
       transform="matrix(0.26458333,0,0,0.26458333,63.254708,15.502142)"
       id="text234-1"
       style="font-size:40px;line-height:1.25;white-space:pre;shape-inside:url(#rect236);fill:#ef9ca6">
      <path
         d="m 139.1775,299.68923 h -4.16 v 5.72 h -12.64 v -5.72 h -15.64 v -7.28 l 17.28,-19 h 11 v 18.04 h 4.16 z m -16.8,-8.24 v -5.6 l -5.04,5.6 z"
         style="font-family:'Champion Gothic';-inkscape-font-specification:'Champion Gothic'"
         id="path898-31" />
      <path
         d="m 169.49749,277.52923 q 4.88,4.92 4.88,11.88 0,6.96 -4.88,11.88 -4.84,4.92 -11.72,4.92 -6.88,0 -11.76,-4.92 -4.84,-4.92 -4.84,-11.88 0,-6.96 4.84,-11.88 4.88,-4.92 11.76,-4.92 6.88,0 11.72,4.92 z m -7.88,11.88 q 0,-7.4 -3.84,-7.4 -3.84,0 -3.84,7.4 0,7.44 3.84,7.44 3.84,0 3.84,-7.44 z"
         style="font-family:'Champion Gothic';-inkscape-font-specification:'Champion Gothic'"
         id="path900-1" />
      <path
         d="m 208.81747,299.68923 h -4.16 v 5.72 h -12.64 v -5.72 h -15.64 v -7.28 l 17.28,-19 h 11 v 18.04 h 4.16 z m -16.8,-8.24 v -5.6 l -5.04,5.6 z"
         style="font-family:'Champion Gothic';-inkscape-font-specification:'Champion Gothic'"
         id="path902-1" />
    </g>
  </g>
</svg>
