<?xml version="1.0" encoding="UTF-8" standalone="no"?>
<!-- Created with Inkscape (http://www.inkscape.org/) -->

<svg
   width="117.908mm"
   height="21.545067mm"
   viewBox="0 0 117.908 21.545067"
   version="1.1"
   id="svg5"
   inkscape:version="1.2.2 (732a01da63, 2022-12-09)"
   sodipodi:docname="logo.svg"
   xmlns:inkscape="http://www.inkscape.org/namespaces/inkscape"
   xmlns:sodipodi="http://sodipodi.sourceforge.net/DTD/sodipodi-0.dtd"
   xmlns="http://www.w3.org/2000/svg"
   xmlns:svg="http://www.w3.org/2000/svg">
  <sodipodi:namedview
     id="namedview7"
     pagecolor="#ffffff"
     bordercolor="#666666"
     borderopacity="1.0"
     inkscape:showpageshadow="2"
     inkscape:pageopacity="0.0"
     inkscape:pagecheckerboard="0"
     inkscape:deskcolor="#d1d1d1"
     inkscape:document-units="mm"
     showgrid="false"
     inkscape:zoom="1.4142136"
     inkscape:cx="356.02827"
     inkscape:cy="-1.4142136"
     inkscape:window-width="1366"
     inkscape:window-height="705"
     inkscape:window-x="-8"
     inkscape:window-y="-8"
     inkscape:window-maximized="1"
     inkscape:current-layer="text234" />
  <defs
     id="defs2">
    <rect
       x="17.28656"
       y="109.48156"
       width="484.02371"
       height="115.24374"
       id="rect236" />
  </defs>
  <g
     inkscape:label="Capa 1"
     inkscape:groupmode="layer"
     id="layer1"
     transform="translate(-43.665442,-46.44167)">
    <g
       aria-label="HStube"
       transform="matrix(0.64122224,0,0,0.64122224,31.657203,-26.129061)"
       id="text234"
       style="font-size:40px;line-height:1.25;white-space:pre;shape-inside:url(#rect236)">
      <path
         d="m 51.487109,145.97563 h -12.64 v -11.24 h -7.48 v 11.24 h -12.64 v -32 h 12.64 v 11.56 h 7.48 v -11.56 h 12.64 z"
         style="fill:#f4dd51"
         id="path3134" />
      <path
         d="m 84.847139,135.33563 q 0,2.32 -0.88,4.32 -0.84,2 -2.6,3.64 -1.76,1.6 -4.84,2.56 -3.08,0.92 -7.2,0.92 -6.68,0 -11.28,-2.96 -4.56,-3 -4.56,-8 h 9.96 q 0.16,1.08 0.8,1.88 0.68,0.76 1.6,1.12 0.96,0.36 1.76,0.52 0.84,0.16 1.6,0.16 1.84,0 3.08,-0.44 1.28,-0.48 1.28,-1.4 0,-0.8 -1.08,-1.32 -1.08,-0.56 -2.8,-0.92 -1.72,-0.36 -3.8,-0.76 -2.08,-0.4 -4.2,-1.12 -2.08,-0.76 -3.8,-1.84 -1.72,-1.08 -2.8,-2.96 -1.08,-1.92 -1.08,-4.44 0,-4.4 4.04,-7.76 4.04,-3.36 11.04,-3.36 6.28,0 10.36,2.96 4.12,2.92 4.12,7.36 h -9.6 q -0.2,-1.4 -1.08,-2.28 -0.88,-0.92 -1.8,-1.16 -0.92,-0.28 -1.92,-0.28 -3.92,0 -3.92,1.84 0,1.04 1.36,1.64 1.4,0.6 4.2,1.16 1.84,0.4 3.08,0.76 1.24,0.32 3.08,0.96 1.84,0.6 3.04,1.4 1.24,0.76 2.44,1.88 1.2,1.08 1.8,2.6 0.6,1.48 0.6,3.32 z"
         style="fill:#ef9ca6"
         id="path3136" />
      <path
         d="m 108.00715,145.97563 h -6.52 q -5.2,0 -7.92,-2.2 -2.68,-2.2 -2.68,-5.92 v -9.24 h -4.68 v -6.24 h 4.68 v -4.48 h 11.52 v 4.48 h 5.6 v 6.24 h -5.6 v 8.64 q 0,0.76 0.72,1.4 0.72,0.64 1.68,0.64 h 3.2 z"
         style="font-family:'Champion Gothic';-inkscape-font-specification:'Champion Gothic';fill:#ffffff;fill-opacity:1"
         id="path3138" />
      <path
         d="m 139.48716,145.97563 h -11 l -0.56,-2.8 q -1.16,1.36 -3.32,2.32 -2.16,0.92 -4.76,0.92 -4.32,0 -6.84,-1.84 -2.52,-1.88 -2.68,-5.16 v -17.04 h 11.52 v 13.88 q 0,1.04 0.88,1.72 0.88,0.68 2.2,0.68 1.32,0 2.2,-0.68 0.88,-0.68 0.88,-1.72 v -13.88 h 11.48 z"
         style="font-family:'Champion Gothic';-inkscape-font-specification:'Champion Gothic';fill:#ffffff;fill-opacity:1"
         id="path3140" />
      <path
         d="m 171.60717,134.17563 q 0,5.2 -2.96,8.72 -2.92,3.52 -7.72,3.52 -2.56,0 -4.12,-0.84 -1.56,-0.88 -2.88,-2.4 l -0.56,2.8 h -11 v -32 h 11.52 v 9.6 q 2.68,-1.68 5.92,-1.68 4.92,0 8.36,3.6 3.44,3.6 3.44,8.68 z m -11.48,0 q 0,-4.88 -3.4,-4.88 -3.4,0 -3.4,4.88 0,4.84 3.4,4.84 3.4,0 3.4,-4.84 z"
         style="font-family:'Champion Gothic';-inkscape-font-specification:'Champion Gothic';fill:#ffffff;fill-opacity:1"
         id="path3142" />
      <path
         d="m 202.60719,134.17563 q 0,0.48 -0.08,1.44 h -17.2 q 0.2,1.84 0.88,2.64 0.72,0.8 1.96,0.8 1.92,0 2.56,-1.8 h 11.44 q -1.24,4.04 -5.08,6.64 -3.8,2.56 -8.92,2.56 -6.12,0 -10.28,-3.56 -4.12,-3.6 -4.12,-8.72 0,-5.12 4.12,-8.68 4.16,-3.6 10.28,-3.6 6.12,0 10.28,3.6 4.16,3.56 4.16,8.68 z m -17.2,-2.04 h 5.56 q -0.48,-2.8 -2.8,-2.8 -2.28,0 -2.76,2.8 z"
         style="font-family:'Champion Gothic';-inkscape-font-specification:'Champion Gothic';fill:#ffffff;fill-opacity:1"
         id="path3144" />
    </g>
  </g>
</svg>
